<svg id="feather-icons-ext" xmlns="http://www.w3.org/2000/svg"><defs><symbol id="asterisk" viewBox="0 0 24 24"><path d="M9.38 1.86L9.14 8.3 2.98 6.7 1.4 11.52l6.07 2.21-3.44 5.37 4.12 2.97L12.12 17l4.04 4.92 4.1-2.99-3.6-5.34 5.93-2.3-1.57-4.83-6.2 1.76-.36-6.35z"/></symbol><symbol id="mastodon" viewBox="0 0 24 24"><path d="M12 .9c-2.9 0-5.6.3-7.2 1 0 0-3.2 1.5-3.2 6.3V12c.2 4.7 1 9.4 5.3 10.5 2 .6 3.7.7 5.1.6 2.5-.2 4-1 4-1l-.1-1.7s-1.8.5-3.9.5c-2-.1-4-.3-4.4-2.7v-.7a26 26 0 0 0 8.8.3c2.8-.3 5.2-2 5.5-3.6.5-2.5.5-6 .5-6 0-4.8-3.2-6.2-3.2-6.2-1.6-.8-4.3-1-7.2-1.1zM8.8 4.7A3 3 0 0 1 11.4 6l.6 1 .6-1a3 3 0 0 1 2.6-1.3c1 0 1.9.3 2.5 1 .6.7 1 1.7 1 2.9v5.8h-2.4V8.7c0-1.2-.5-1.8-1.5-1.8s-1.6.7-1.6 2.2v3h-2.3v-3c0-1.5-.6-2.2-1.7-2.2-1 0-1.5.6-1.5 1.8v5.7H5.4V8.6c0-1.2.3-2.2.9-2.9.6-.7 1.4-1 2.5-1z"/></symbol><symbol id="motovun-jack" viewBox="0 0 24 24"><path d="M2.4 6.9s-.4 1-.2 2c.2 1.1 1 1.7 1.8 2 .8.2 1.8.3 2.4.1.7-.2 1.1-.9 2-1.2.6-.3 3.6 0 4.3 0 .7 0 2.1-.4 2.1-.4s.7-2 .6-2.7a4 4 0 0 1 .8-2.7c.6 2 .7.9 2.3 1.2 1.5.4 1.7.3 3.4-.3-1.3 1.4-.6 1.6-.9 2.1-.3.5 0 1.5 0 2.8 0 1.3-1.6 2-2 2a3 3 0 0 1-1.5-.4"/><path d="M19 11.9l-.2 1.1c-.2.8-.7 1.3-.8 2-.1.7.7 3.2.4 3.7-.2.5-2.2.3-3 .3a19 19 0 0 1-.4-2.9l-.7-1.5s-1 .4-1.7.4c-.9 0-2-.5-2-.5l-.5.7c-.3.4-.2.7.1 1.7.3 1 2.3 1 1.8 1.8-.5.7-2.8.3-4 .3-1-1-1.8-2.3-1.8-2.6 0-.4 1-1.5.9-1.7C7 14.4 6 14 6 13s1-2.2 1-2.2"/></symbol><symbol id="pentagon" viewBox="0 0 24 24"><path d="M12 2.6l10 7.2-3.8 11.8H5.8L2 9.8z"/></symbol><symbol id="patreon" viewBox="0 0 24 24"><g><path d="M14.86 2.08a7.39 7.39 0 0 0-7.3 7.45c0 4.1 3.27 7.43 7.3 7.43a7.37 7.37 0 0 0 7.28-7.43c0-4.11-3.26-7.45-7.28-7.45z"/><path d="M1.86 2.08v19.84h3.56V2.08z"/></g></symbol></defs></svg>
