<svg id="feather-icons-ext" xmlns="http://www.w3.org/2000/svg"><defs><symbol id="motovun-jack"><path d="M2.4 6.9s-.4 1-.2 2c.2 1.1 1 1.7 1.8 2 .8.2 1.8.3 2.4.1.7-.2 1.1-.9 2-1.2.6-.3 3.6 0 4.3 0 .7 0 2.1-.4 2.1-.4s.7-2 .6-2.7a4 4 0 0 1 .8-2.7c.6 2 .7.9 2.3 1.2 1.5.4 1.7.3 3.4-.3-1.3 1.4-.6 1.6-.9 2.1-.3.5 0 1.5 0 2.8 0 1.3-1.6 2-2 2a3 3 0 0 1-1.5-.4"/>
<path d="M19 11.9l-.2 1.1c-.2.8-.7 1.3-.8 2-.1.7.7 3.2.4 3.7-.2.5-2.2.3-3 .3a19 19 0 0 1-.4-2.9l-.7-1.5s-1 .4-1.7.4c-.9 0-2-.5-2-.5l-.5.7c-.3.4-.2.7.1 1.7.3 1 2.3 1 1.8 1.8-.5.7-2.8.3-4 .3-1-1-1.8-2.3-1.8-2.6 0-.4 1-1.5.9-1.7C7 14.4 6 14 6 13s1-2.2 1-2.2"/></symbol><symbol id="pentagon" viewBox="0 0 24 24"><path d="M12 2.6l10 7.2-3.8 11.8H5.8L2 9.8z"/></symbol></defs></svg>
