<svg class="" width="202px" height="90px" viewBox="0 0 202 90" xmlns="http://www.w3.org/2000/svg" xmlns:xlink="http://www.w3.org/1999/xlink">
    <defs>
        <filter id="a" x="-.015" width="1.025" y="-.013" height="1.026" color-interpolation-filters="sRGB">
            <feGaussianBlur stdDeviation="3"/>
        </filter>
    </defs>
<g fill-rule="evenodd" style="opacity:0.3" fill="black">
<path class="" d="M145.735 121.199c-15.511 2.854-42.768 17.154-56.605 28.813-13.838 11.658-14.265 11.851-17.902 21.057-3.637 9.206-.1 20.2-5.239 30.924-5.138 10.725-17.466 17.213-24.627 27.27 24.54-18.345 50.473-27.07 65.95-33.907 15.478-6.837 21.392-9.137 35.404-18.09 14.013-8.954 29.152-23.397 34.275-31.779 5.122-8.382 8.69-10.476 4.267-20.16-4.423-9.684-20.012-6.982-35.523-4.128zm-6.586 17.884c9.041-1.653 17.789 5.843 9.648 15.052-8.14 9.21-28.274 22.142-39.047 25.113-10.773 2.97-15.78-.5-14.327-9.245 1.453-8.746 9.015-16.526 16.596-22.144 7.58-5.619 18.088-7.122 27.13-8.776z" filter="url(#a)"/>
</g></svg>
