<svg xmlns="http://www.w3.org/2000/svg" width="30" height="30" version="1" viewBox="0 0 131 131"><g>
  <path d="M65 5L13 35v61l52 30 53-30V35L65 5zm-.8 27c28.2 0 44.3 32.2 44.3 32.2S92.4 96.4 64.2 96.4c-28.2 0-44.3-32.2-44.3-32.2S36 32 64.2 32z"/>
  <path d="M64.2 46.5a17.6 17.6 0 0 0-17.7 17.7 17.6 17.6 0 0 0 17.7 17.6 17.6 17.6 0 0 0 17.6-17.6 17.6 17.6 0 0 0-17.6-17.7zm.7 5.2a24.6 24.6 0 0 1 9.2 1.8v5a19.7 19.7 0 0 0-4.2-1.7 16 16 0 0 0-4.2-.5c-2.6 0-4.6.7-6 2-1.5 1.4-2.2 3.4-2.2 6s.7 4.5 2 6c1.4 1.3 3.4 2 5.9 2h1.9a7.8 7.8 0 0 0 1.5-.5v-4.7h-4V63h10.3v11.7a24.2 24.2 0 0 1-5.1 1.7c-1.8.4-3.6.6-5.5.6-4.2 0-7.6-1.2-10-3.4a11.8 11.8 0 0 1-3.8-9.2c0-3.9 1.3-7 3.8-9.2A15 15 0 0 1 65 51.7z"/>
</g></svg>
