<svg xmlns="http://www.w3.org/2000/svg" width="24" height="24" fill="none" stroke="currentColor" stroke-width="2" stroke-linecap="round" stroke-linejoin="round" id="svg842">
  <path style="fill:#2b90d9;stroke-width:0.0957739" d="M12 .9c-2.9 0-5.6.3-7.2 1 0 0-3.2 1.5-3.2 6.3V12c.2 4.7 1 9.4 5.3 10.5 2 .6 3.7.7 5.1.6 2.5-.2 4-1 4-1l-.1-1.7s-1.8.5-3.9.5c-2-.1-4-.3-4.4-2.7v-.7a26 26 0 0 0 8.8.3c2.8-.3 5.2-2 5.5-3.6.5-2.5.5-6 .5-6 0-4.8-3.2-6.2-3.2-6.2-1.6-.8-4.3-1-7.2-1.1zM8.8 4.7A3 3 0 0 1 11.4 6l.6 1 .6-1a3 3 0 0 1 2.6-1.3c1 0 1.9.3 2.5 1 .6.7 1 1.7 1 2.9v5.8h-2.4V8.7c0-1.2-.5-1.8-1.5-1.8s-1.6.7-1.6 2.2v3h-2.3v-3c0-1.5-.6-2.2-1.7-2.2-1 0-1.5.6-1.5 1.8v5.7H5.4V8.6c0-1.2.3-2.2.9-2.9.6-.7 1.4-1 2.5-1z" id="path2083"/>
</svg>
