<?xml version="1.0" encoding="UTF-8" standalone="no"?>
<svg
   xmlns:dc="http://purl.org/dc/elements/1.1/"
   xmlns:cc="http://creativecommons.org/ns#"
   xmlns:rdf="http://www.w3.org/1999/02/22-rdf-syntax-ns#"
   xmlns:svg="http://www.w3.org/2000/svg"
   xmlns="http://www.w3.org/2000/svg"
   xmlns:sodipodi="http://sodipodi.sourceforge.net/DTD/sodipodi-0.dtd"
   xmlns:inkscape="http://www.inkscape.org/namespaces/inkscape"
   width="22pt"
   height="22pt"
   viewBox="0 0 128 128"
   id="svg2"
   version="1.1"
   inkscape:version="0.91 r13725"
   sodipodi:docname="icon.svg">
  <metadata
     id="metadata12">
    <rdf:RDF>
      <cc:Work
         rdf:about="">
        <dc:format>image/svg+xml</dc:format>
        <dc:type
           rdf:resource="http://purl.org/dc/dcmitype/StillImage" />
        <dc:title />
      </cc:Work>
    </rdf:RDF>
  </metadata>
  <defs
     id="defs10" />
  <sodipodi:namedview
     pagecolor="#ffffff"
     bordercolor="#666666"
     borderopacity="1"
     objecttolerance="10"
     gridtolerance="10"
     guidetolerance="10"
     inkscape:pageopacity="0"
     inkscape:pageshadow="2"
     inkscape:window-width="1440"
     inkscape:window-height="787"
     id="namedview8"
     showgrid="false"
     inkscape:zoom="2.8284271"
     inkscape:cx="-47.462104"
     inkscape:cy="-48.648396"
     inkscape:window-x="-8"
     inkscape:window-y="-8"
     inkscape:window-maximized="1"
     inkscape:current-layer="g4"
     showguides="false" />
  <g
     fill-rule="evenodd"
     id="g4">
    <path
       d="m 13.75,0 -11.7226562,6.875 0,13.75 L 13.75,27.5 l 11.722656,-6.875 0,-13.75 z m -3.275391,6.96875 6.617188,1.6738281 0,11.7695309 -6.617188,-1.673828 z m 12.306641,0.5 0,11.769531 -5.179688,1.173828 0,-11.7695309 z M 9.9296875,6.9941406 l 0,11.7695314 L 4.5,19.9375 4.5,8.1679688 Z M 7.6835938,8.2617188 c -0.5956663,0 -1.0917969,0.5146216 -1.0917969,1.0742187 0,0.25175 0.1417375,0.5720299 0.2441406,0.7929685 l 0.84375,1.619141 0.8398437,-1.619141 C 8.6219353,9.9079674 8.7675781,9.6037284 8.7675781,9.3359375 c 0,-0.5595971 -0.4883204,-1.0742188 -1.0839843,-1.0742187 z M 7.65625,8.9101562 c 0.00911,-2.918e-4 0.018231,-2.918e-4 0.027344,0 0.2340669,0.00184 0.4230599,0.1917084 0.4238281,0.4257813 0,0.2345331 -0.1896592,0.4223781 -0.4238281,0.4238281 C 7.4494236,9.7581758 7.2597656,9.5705606 7.2597656,9.3359375 7.259928,9.1120393 7.4329311,8.9262527 7.65625,8.9101562 Z m 6.134766,0.5410157 c -1.518082,0 -2.78125,1.3140741 -2.78125,2.7402341 0,0.641599 0.362065,1.456455 0.623046,2.019532 l 2.148438,4.128906 2.138672,-4.128906 c 0.260981,-0.563077 0.632812,-1.337053 0.632812,-2.019532 0,-1.42616 -1.243636,-2.7402341 -2.761718,-2.7402341 z m 0,1.6523441 c 0.59758,0.0047 1.079635,0.490292 1.080078,1.08789 0,0.597717 -0.483285,1.076382 -1.080078,1.080078 -0.596794,-0.0039 -1.080082,-0.48213 -1.080078,-1.080078 4.43e-4,-0.597598 0.482498,-1.08314 1.080078,-1.08789 z m -8.2890629,1.5625 c -0.398476,0 -0.7285156,0.346356 -0.7285156,0.720703 0,0.16841 0.093611,0.381498 0.1621094,0.529297 L 5.5,15 6.0605469,13.916016 c 0.0685,-0.147799 0.1660156,-0.350156 0.1660156,-0.529297 0,-0.374347 -0.3261354,-0.720703 -0.7246094,-0.720703 z m 0,0.433593 c 0.1581097,3.42e-4 0.2858943,0.129002 0.2851563,0.28711 0,0.156893 -0.1285073,0.282233 -0.2851563,0.283203 C 5.345303,13.668826 5.21875,13.543672 5.21875,13.386719 c -7.405e-4,-0.15735 0.1258578,-0.285695 0.2832031,-0.28711 z m 14.2519529,1.25586 c -0.595666,0 -1.091797,0.51462 -1.091797,1.074219 0,0.25175 0.141738,0.572029 0.244141,0.792968 l 0.84375,1.619141 0.839844,-1.619141 c 0.102404,-0.220939 0.248047,-0.525177 0.248047,-0.792968 0,-0.559599 -0.488321,-1.074219 -1.083985,-1.074219 z m -0.02734,0.648437 c 0.0091,-2.92e-4 0.01823,-2.92e-4 0.02734,0 0.234067,0.0018 0.42306,0.191709 0.423828,0.425782 0,0.234532 -0.189659,0.422378 -0.423828,0.423828 -0.23417,-0.0016 -0.423828,-0.189206 -0.423828,-0.423828 1.62e-4,-0.223898 0.173165,-0.409685 0.396484,-0.425782 z"
       transform="scale(4.6545455,4.6545455)"
       id="path6"
       inkscape:connector-curvature="0"
       sodipodi:nodetypes="ccccccccccccccccccccccsscccssccccccsscccsscccccsscccsscccccsscccsscccccc" />
    <path
       d="m 68.697855,-158.19899 58.763635,0 0,67.490907 -58.763635,0 z"
       id="path4383"
       inkscape:connector-curvature="0"
       style="fill:#ffffff" />
  </g>
</svg>
